<svg version="1.0" xmlns="http://www.w3.org/2000/svg"
 viewBox="190 407 1099 263"
 preserveAspectRatio="xMidYMid meet">

<g transform="translate(0.000000,1086.000000) scale(0.100000,-0.100000)"
fill="#FFFFFF" stroke="none">
<path d="M4088 6580 c-166 -20 -287 -79 -404 -195 -58 -57 -91 -100 -116 -150
-64 -128 -73 -166 -73 -315 0 -141 14 -208 68 -315 75 -152 239 -277 424 -326
99 -26 267 -28 368 -5 302 71 506 330 506 641 0 164 -43 294 -138 418 -137
177 -391 276 -635 247z m156 -271 c85 -15 141 -43 199 -98 205 -194 152 -534
-103 -655 -59 -28 -74 -31 -165 -31 -94 0 -105 2 -169 34 -84 41 -136 92 -175
169 -120 238 -2 508 250 576 67 18 90 19 163 5z"/>
<path d="M2100 5921 l0 -641 413 0 c439 0 500 6 587 50 64 33 136 106 167 169
25 50 28 67 28 161 0 86 -4 113 -21 151 -29 63 -79 116 -141 151 l-53 30 29
24 c16 13 41 48 55 76 22 43 26 66 26 134 0 73 -4 89 -33 145 -38 75 -102 128
-192 161 -57 21 -78 22 -462 26 l-403 3 0 -640z m739 386 c48 -17 76 -59 76
-112 0 -60 -39 -101 -109 -114 -55 -10 -292 -13 -368 -5 l-48 6 0 119 0 119
208 -1 c133 0 219 -4 241 -12z m86 -483 c54 -27 88 -92 82 -153 -5 -47 -27
-83 -71 -115 -26 -20 -43 -21 -287 -24 l-259 -3 0 154 c0 84 3 157 7 161 5 4
116 6 248 4 219 -3 244 -5 280 -24z"/>
<path d="M5137 6553 c-4 -3 -7 -291 -7 -640 l0 -633 145 0 145 0 0 264 0 263
53 7 c67 8 530 8 551 0 14 -5 16 -39 16 -270 l0 -264 145 0 145 0 0 640 0 641
-142 -3 -143 -3 -3 -237 -2 -238 -310 0 -310 0 0 240 0 240 -138 0 c-76 0
-142 -3 -145 -7z"/>
<path d="M6613 6118 c4 -480 3 -471 62 -588 96 -190 357 -303 623 -270 272 34
446 185 496 432 13 63 16 151 16 473 l0 396 -142 -3 -143 -3 -5 -410 c-6 -459
-4 -446 -81 -530 -57 -62 -125 -89 -224 -89 -142 -1 -230 47 -282 152 l-28 57
-5 410 -5 410 -143 3 -143 3 4 -443z"/>
<path d="M8070 6554 c0 -11 36 -74 80 -139 62 -93 444 -704 464 -744 l17 -31
92 0 93 0 119 203 c65 111 135 229 156 262 l39 60 0 -442 0 -443 145 0 145 0
-2 638 -3 637 -180 3 -180 2 -159 -270 c-87 -148 -162 -272 -166 -275 -7 -5
-59 79 -289 468 l-46 77 -162 -1 c-90 0 -163 -3 -163 -5z"/>
<path d="M9700 5920 l0 -640 145 0 145 0 0 235 0 235 318 2 317 3 0 125 0 125
-317 3 -318 2 0 140 0 140 78 1 c42 1 172 1 287 -1 116 -1 245 1 288 5 l78 7
-3 127 -3 126 -507 3 -508 2 0 -640z"/>
<path d="M10920 5920 l0 -640 140 0 140 0 0 640 0 640 -140 0 -140 0 0 -640z"/>
<path d="M11394 6547 c-2 -7 -3 -67 -2 -133 l3 -119 209 -3 208 -2 -3 -98 c-1
-53 -2 -280 -1 -505 l2 -408 141 3 141 3 -1 503 -2 502 43 1 c24 0 120 1 213
3 l170 2 0 129 0 130 -558 3 c-454 2 -559 0 -563 -11z"/>
<path d="M7160 4750 c0 -17 -7 -20 -45 -20 -33 0 -45 -4 -45 -15 0 -12 19 -15
115 -15 96 0 115 3 115 15 0 11 -12 15 -45 15 -38 0 -45 3 -45 20 0 15 -7 20
-25 20 -18 0 -25 -5 -25 -20z"/>
<path d="M7370 4710 l0 -60 -35 0 c-28 0 -35 -4 -35 -19 0 -15 8 -21 32 -23
30 -3 32 -5 32 -43 1 -33 4 -40 21 -40 19 0 20 8 23 123 2 117 2 122 -18 122
-18 0 -20 -6 -20 -60z"/>
<path d="M7960 4630 c0 -133 1 -140 20 -140 19 0 20 7 20 140 0 133 -1 140
-20 140 -19 0 -20 -7 -20 -140z"/>
<path d="M6507 4743 c-4 -3 -7 -53 -7 -110 l0 -103 60 0 60 0 0 -45 0 -45 -80
0 c-64 0 -80 -3 -80 -15 0 -13 27 -15 185 -15 158 0 185 2 185 15 0 12 -16 15
-80 15 l-80 0 0 45 0 45 60 0 60 0 0 110 c0 102 -1 110 -19 110 -16 0 -20 -8
-23 -37 l-3 -38 -100 0 -100 0 -3 38 c-3 34 -18 48 -35 30z m241 -140 l-3 -38
-100 0 c-97 0 -100 1 -103 23 -7 48 1 52 108 52 l101 0 -3 -37z"/>
<path d="M7680 4725 c0 -8 9 -15 20 -15 18 0 20 -7 20 -65 0 -63 -1 -65 -25
-65 -16 0 -25 -6 -25 -15 0 -12 18 -15 103 -15 116 0 147 6 147 27 0 10 -9 13
-27 11 -28 -3 -28 -2 -31 60 -3 57 -1 62 18 62 11 0 20 7 20 15 0 12 -19 15
-110 15 -91 0 -110 -3 -110 -15z m138 -77 c-3 -60 -4 -63 -28 -63 -24 0 -25 3
-28 63 l-3 62 31 0 31 0 -3 -62z"/>
<path d="M7110 4650 c-27 -27 -26 -71 3 -98 52 -49 167 -16 167 49 0 47 -31
69 -95 69 -42 0 -60 -5 -75 -20z m120 -25 c18 -22 8 -48 -22 -59 -53 -19 -101
27 -66 62 17 17 73 15 88 -3z"/>
<path d="M7844 4503 c-16 -55 -49 -84 -129 -116 -6 -3 -6 -9 2 -17 15 -17 68
1 113 39 l34 28 36 -27 c46 -36 101 -55 111 -38 5 8 -10 22 -48 43 -43 23 -60
39 -72 67 -17 40 -38 49 -47 21z"/>
<path d="M7184 4493 l-51 -4 1 -62 1 -62 135 0 135 0 0 64 0 65 -85 2 c-47 0
-108 -1 -136 -3z m181 -68 l0 -30 -91 -3 -92 -3 -4 31 c-3 16 -2 32 1 35 3 3
46 4 96 3 l90 -3 0 -30z"/>
</g>
<g transform="translate(0.000000,1086.000000) scale(0.100000,-0.100000)"
fill="#5955DE" stroke="none">
<path d="M8134 5933 c-20 -54 -84 -219 -141 -366 -56 -147 -103 -272 -103
-277 0 -6 57 -10 143 -10 l144 0 78 208 c43 114 84 221 91 238 13 30 11 35
-39 111 -29 44 -68 106 -87 137 -19 31 -38 56 -42 56 -3 0 -23 -44 -44 -97z"/>
<path d="M12435 5601 c-153 -71 -136 -288 27 -331 84 -23 167 13 206 90 77
153 -77 313 -233 241z"/>
</g>
</svg>
